<svg xmlns="http://www.w3.org/2000/svg" viewBox="0 0 760 650">
<defs>
<linearGradient id="bg" x1="0" y1="0" x2="1" y2="1"><stop stop-color="#0a2340"/><stop offset="1" stop-color="#123f6c"/></linearGradient>
<linearGradient id="sea" x1="0" x2="1"><stop stop-color="#1d63ff"/><stop offset="1" stop-color="#2bc5d9"/></linearGradient>
<filter id="s"><feDropShadow dx="0" dy="18" stdDeviation="16" flood-opacity=".18"/></filter>
</defs>
<rect x="40" y="35" width="680" height="560" rx="44" fill="url(#bg)" filter="url(#s)"/>
<g opacity=".14" stroke="#fff"><path d="M40 145h680M40 255h680M40 365h680M40 475h680"/><path d="M150 35v560M260 35v560M370 35v560M480 35v560M590 35v560"/></g>
<circle cx="385" cy="290" r="170" fill="none" stroke="#fff" stroke-opacity=".48" stroke-width="3"/>
<ellipse cx="385" cy="290" rx="75" ry="170" fill="none" stroke="#fff" stroke-opacity=".22" stroke-width="2"/>
<ellipse cx="385" cy="290" rx="170" ry="74" fill="none" stroke="#fff" stroke-opacity=".22" stroke-width="2"/>
<path d="M215 290h340M385 120v340" stroke="#fff" stroke-opacity=".2" stroke-width="2"/>
<path d="M170 245C270 150 390 150 515 250" fill="none" stroke="#f3b73e" stroke-width="4" stroke-dasharray="11 10"/>
<path d="M520 262C575 330 560 410 485 470" fill="none" stroke="#2bc5d9" stroke-width="4" stroke-dasharray="11 10"/>
<g transform="translate(118 205)" filter="url(#s)"><rect width="108" height="72" rx="16" fill="#fff"/><path d="M18 49h72V29H18z" fill="#1d63ff"/><path d="M28 29V18h52v11" fill="none" stroke="#071d34" stroke-width="5"/><circle cx="36" cy="54" r="8" fill="#071d34"/><circle cx="75" cy="54" r="8" fill="#071d34"/></g>
<g transform="translate(520 225)" filter="url(#s)"><rect width="106" height="106" rx="22" fill="#7be1d7"/><path d="M28 31h50v45H28z" fill="#071d34"/><path d="M28 46h50M53 31v45" stroke="#fff" stroke-width="3"/></g>
<g transform="translate(456 435)" filter="url(#s)"><rect width="120" height="82" rx="18" fill="#fff"/><path d="M17 58h85l-13-25H31z" fill="url(#sea)"/><path d="M30 32h58" stroke="#071d34" stroke-width="5"/><circle cx="39" cy="65" r="8" fill="#071d34"/><circle cx="82" cy="65" r="8" fill="#071d34"/></g>
<circle cx="170" cy="245" r="12" fill="#f3b73e" stroke="#fff" stroke-width="5"/>
<circle cx="520" cy="262" r="12" fill="#7be1d7" stroke="#fff" stroke-width="5"/>
<circle cx="485" cy="470" r="12" fill="#1d63ff" stroke="#fff" stroke-width="5"/>
<text x="87" y="115" font-family="Arial" font-size="15" font-weight="700" letter-spacing="4" fill="#fff">UNITED STATES</text>
<text x="504" y="545" font-family="Arial" font-size="15" font-weight="700" letter-spacing="4" fill="#fff">LATIN AMERICA</text>
</svg>